# 3ds Max Wavefront OBJ Exporter v0.94b - (c)2007 guruware
# File Created: 06.04.2018 20:03:04

mtllib trig.mtl

#
# object ________01
#

v  4.2453 125.0120 -2.0816
v  -62.8899 0.0050 67.5367
v  71.3804 0.0050 67.5367
v  71.3804 0.0050 -71.6998
v  -62.8899 0.0050 -71.6998
v  4.2453 0.0050 -2.0816
# 6 vertices

vn 0.0000 0.4866 0.8737
vn 0.8810 0.4731 -0.0000
vn 0.0000 0.4866 -0.8737
vn -0.8810 0.4731 -0.0000
vn 0.0000 -1.0000 -0.0000
# 5 vertex normals

vt 0.5000 1.0000 0.0000
vt 0.0000 0.0000 0.0000
vt 1.0000 0.0000 0.0000
vt 0.0178 0.0000 0.0000
vt 1.0178 0.0000 0.0000
vt 0.0000 1.0000 0.0000
vt 0.5000 0.5000 0.0000
vt 1.0000 1.0000 0.0000
# 8 texture coords

g ________01
usemtl wire_108008136
f 1/1/1 2/2/1 3/3/1 
f 1/1/2 3/4/2 4/5/2 
f 1/1/3 4/2/3 5/3/3 
f 1/1/4 5/4/4 2/5/4 
f 2/6/5 6/7/5 3/8/5 
f 3/8/5 6/7/5 4/3/5 
f 4/3/5 6/7/5 5/2/5 
f 5/2/5 6/7/5 2/6/5 
# 8 faces

